<!DOCTYPE svg PUBLIC "-//W3C//DTD SVG 1.1//EN" "http://www.w3.org/Graphics/SVG/1.1/DTD/svg11.dtd">
<!-- Uploaded to: SVG Repo, www.svgrepo.com, Transformed by: SVG Repo Mixer Tools -->
<svg fill="#62a0ea" height="64px" width="64px" version="1.1" id="Layer_1" xmlns="http://www.w3.org/2000/svg" xmlns:xlink="http://www.w3.org/1999/xlink" viewBox="0 0 512 512" xml:space="preserve">
<g id="SVGRepo_bgCarrier" stroke-width="0"/>
<g id="SVGRepo_tracerCarrier" stroke-linecap="round" stroke-linejoin="round"/>
<g id="SVGRepo_iconCarrier"> <g> <g> <path d="M304.635,285.771c-3.238-3.238-8.487-3.239-11.727,0c-14.383,14.382-37.785,14.382-52.168,0 c-3.239-3.239-8.488-3.238-11.726,0c-3.238,3.238-3.238,8.488,0,11.725c10.425,10.424,24.117,15.637,37.811,15.637 s27.385-5.211,37.811-15.637C307.873,294.258,307.873,289.009,304.635,285.771z"/> </g> </g> <g> <g> <path d="M217.609,213.426c-4.58,0-8.292,3.712-8.292,8.292v13.262c0,4.579,3.712,8.292,8.292,8.292 c4.58,0,8.292-3.712,8.292-8.292v-13.262C225.9,217.138,222.189,213.426,217.609,213.426z"/> </g> </g> <g> <g> <path d="M316.039,213.426c-4.58,0-8.292,3.712-8.292,8.292v13.262c0,4.579,3.711,8.292,8.292,8.292s8.292-3.712,8.292-8.292 v-13.262C324.331,217.138,320.62,213.426,316.039,213.426z"/> </g> </g> <g> <g> <path d="M279.538,207.898c-4.58,0-8.292,3.712-8.292,8.292v32.613c0,2.439-1.983,4.422-4.422,4.422 c-2.439,0-4.422-1.983-4.422-4.422v-32.613c0-4.579-3.711-8.292-8.292-8.292s-8.292,3.712-8.292,8.292v32.613 c0,11.583,9.422,21.005,21.005,21.005s21.005-9.422,21.005-21.005v-32.613C287.829,211.61,284.118,207.898,279.538,207.898z"/> </g> </g> <g> <g> <path d="M416.278,214.337c0-17.532-13.313-32.01-30.363-33.876l-0.667-6.891h6.833c2.484,0,4.839-1.114,6.413-3.037 c1.575-1.921,2.206-4.449,1.717-6.885l-6.649-33.166c-0.776-3.874-4.178-6.662-8.13-6.662h-1.714 c-1.957-28.179-13.865-54.404-34.032-74.572c-14.497-14.497-32.336-24.83-51.912-30.17V8.292c0-4.579-3.711-8.292-8.292-8.292 h-45.327c-4.58,0-8.292,3.712-8.292,8.292v10.801c-23.272,6.378-44.285,19.958-59.707,38.769 c-15.348,18.719-24.483,41.878-26.201,65.96h-1.75c-3.951,0-7.353,2.787-8.13,6.662l-6.649,33.166 c-0.489,2.437,0.142,4.963,1.717,6.885c1.574,1.923,3.929,3.037,6.413,3.037h6.829l-0.666,6.892 c-17.044,1.865-30.352,16.343-30.352,33.876c0.001,15.336,10.062,28.328,24.074,32.597c-1.31,30.6,12.886,60.286,37.812,78.387 l45.382,32.978c12.615,9.167,27.395,13.75,42.182,13.748c14.782-0.001,29.572-4.584,42.191-13.748l45.381-32.978 c24.919-18.104,39.111-47.79,37.801-78.387C406.213,242.668,416.278,229.676,416.278,214.337z M142.973,229.654 c-5.394-2.985-9.017-8.723-9.017-15.316c-0.001-7.766,5.088-14.359,12.103-16.641L142.973,229.654z M297.778,36.365 c15.08,4.862,28.824,13.249,40.184,24.609c17.034,17.034,27.207,39.101,29.133,62.847h-69.317V36.365z M252.45,16.583h28.744 V123.82H252.45V16.583z M235.867,36.388v87.433h-69.301C169.929,83.519,197.565,48.79,235.867,36.388z M344.644,311.909 l-45.38,32.977c-7.339,5.33-15.63,8.641-24.154,9.94v-21.504c0-4.579-3.711-8.292-8.292-8.292s-8.292,3.712-8.292,8.292v21.504 c-8.52-1.3-16.807-4.61-24.141-9.939l-45.385-32.979c-21.51-15.622-33.283-41.768-30.726-68.234l6.774-70.105h47.743l5.275,21.337 c0.915,3.701,4.236,6.302,8.049,6.302h81.412c3.813,0,7.134-2.6,8.049-6.302l5.274-21.337h47.737l6.771,70.104 C377.917,270.139,366.149,296.285,344.644,311.909z M229.874,173.57h73.895l-2.734,11.055h-68.429L229.874,173.57z M151.679,156.987l3.324-16.583h223.638l3.324,16.583H151.679z M390.667,229.655l-3.088-31.959 c7.021,2.281,12.116,8.874,12.116,16.641C399.694,220.931,396.067,226.671,390.667,229.655z"/> </g> </g> <g> <g> <path d="M319.338,495.417H154.607v-36.833c24.332-10.465,40.296-34.375,40.296-61.289c0-15.71-5.579-30.837-15.524-42.759 c0.255-0.161,0.499-0.336,0.757-0.493c3.914-2.377,5.161-7.477,2.785-11.39c-2.376-3.915-7.476-5.161-11.391-2.785 c-20.98,12.737-33.506,34.977-33.506,59.49v53.586c0,0.021,0,0.042,0,0.062v50.703c0,4.579,3.711,8.292,8.292,8.292h173.023 c4.58,0,8.292-3.712,8.292-8.292C327.63,499.129,323.919,495.417,319.338,495.417z M154.608,399.357 c-0.001-12.692,4.419-24.576,12.265-33.94c7.34,8.919,11.448,20.186,11.448,31.877c0,17.695-9.176,33.668-23.713,42.655V399.357z"/> </g> </g> <g> <g> <path d="M316.833,365.586c-4.58,0-8.292,3.712-8.292,8.292c0,22.327-18.165,40.493-40.493,40.493 c-22.328,0-40.493-18.165-40.493-40.493c0-4.579-3.711-8.292-8.292-8.292s-8.292,3.712-8.292,8.292 c0,31.471,25.604,57.076,57.076,57.076c31.471,0,57.076-25.604,57.076-57.076C325.125,369.298,321.413,365.586,316.833,365.586z"/> </g> </g> <g> <g> <path d="M395.615,452.943v-53.586c0-24.509-12.53-46.749-33.517-59.49c-3.914-2.375-9.013-1.129-11.391,2.785 c-2.376,3.915-1.129,9.013,2.785,11.39c0.261,0.159,0.506,0.335,0.764,0.497c-9.944,11.921-15.521,27.046-15.521,42.755 c0,26.914,15.964,50.825,40.297,61.289v36.833h-32.055c-4.58,0-8.292,3.712-8.292,8.292s3.711,8.292,8.292,8.292h40.347 c4.58,0,8.292-3.712,8.292-8.292v-50.703C395.615,452.984,395.615,452.964,395.615,452.943z M379.032,439.95 c-14.538-8.987-23.714-24.96-23.714-42.655c0-11.69,4.106-22.954,11.445-31.873c7.848,9.364,12.269,21.247,12.269,33.936V439.95z"/> </g> </g> <g> <g> <path d="M123.105,495.417H20.647l3.289-24.359h93.439h5.73c4.58,0,8.292-3.712,8.292-8.292c0-4.058-2.918-7.43-6.769-8.146 l-19.922-145.166c-0.564-4.105-4.072-7.164-8.215-7.164H65.412c-4.144,0-7.651,3.059-8.215,7.164l-19.901,145.02H16.689 c-4.15,0-7.663,3.069-8.218,7.183L2.944,502.6c-0.32,2.371,0.399,4.765,1.974,6.566C6.492,510.967,8.768,512,11.16,512h111.945 c4.58,0,8.292-3.712,8.292-8.292S127.685,495.417,123.105,495.417z M72.645,318.873H89.26l5.46,39.786H67.184L72.645,318.873z M64.908,375.241h32.087l5.129,37.371H59.78L64.908,375.241z M57.503,429.196h46.896l3.469,25.278H54.034L57.503,429.196z"/> </g> </g> <g> <g> <path d="M508.02,321.081l-28.797-49.878c-1.481-2.565-4.218-4.146-7.18-4.146h-57.594c-2.963,0-5.699,1.581-7.18,4.146 l-28.797,49.878c-1.481,2.565-1.481,5.727,0,8.292l28.797,49.878c1.481,2.565,4.218,4.146,7.18,4.146h20.506v71.307 c0,4.579,3.711,8.292,8.292,8.292s8.292-3.712,8.292-8.292v-71.307h20.506c2.963,0,5.699-1.581,7.18-4.146l28.797-49.878 C509.501,326.807,509.501,323.646,508.02,321.081z M467.255,366.813h-48.02l-24.01-41.586l24.01-41.586h48.02l24.01,41.586 L467.255,366.813z"/> </g> </g> <g> <g> <path d="M460.934,316.935h-35.377c-4.58,0-8.292,3.712-8.292,8.292s3.711,8.292,8.292,8.292h35.377 c4.58,0,8.292-3.712,8.292-8.292S465.514,316.935,460.934,316.935z"/> </g> </g> </g>
</svg>